{
	"asset":{
		"generator":"Khronos glTF Blender I/O v4.0.44",
		"version":"2.0"
	},
	"scene":0,
	"scenes":[
		{
			"name":"Scene",
			"nodes":[
				0,
				1,
				2,
				3
			]
		}
	],
	"nodes":[
		{
			"mesh":0,
			"name":"Cube",
			"scale":[
				21.18181800842285,
				5.769498825073242,
				2.794276237487793
			],
			"translation":[
				-13.827615737915039,
				12.270478248596191,
				4.242511749267578
			]
		},
		{
			"mesh":1,
			"name":"Cube.001",
			"rotation":[
				0,
				0,
				-1,
				0
			],
			"scale":[
				-21.18181800842285,
				-5.769498825073242,
				-6.136094093322754
			],
			"translation":[
				-13.958643913269043,
				7.810643196105957,
				15.749537467956543
			]
		},
		{
			"mesh":2,
			"name":"penstocks",
			"scale":[
				1.6055612564086914,
				1.2524807453155518,
				2.6285619735717773
			],
			"translation":[
				-32.91354751586914,
				-2.2406153678894043,
				1.373006820678711
			]
		},
		{
			"mesh":3,
			"name":"penstocks.001",
			"rotation":[
				-0.1666954755783081,
				-0.005958002060651779,
				0.05983532965183258,
				0.9841731786727905
			],
			"scale":[
				1.6055612564086914,
				1.2524807453155518,
				2.6285619735717773
			],
			"translation":[
				-31.0473690032959,
				-9.087457656860352,
				17.6209774017334
			]
		}
	],
	"materials":[
		{
			"doubleSided":true,
			"name":"Material.001",
			"pbrMetallicRoughness":{
				"baseColorFactor":[
					0.800000011920929,
					0.800000011920929,
					0.800000011920929,
					1
				],
				"roughnessFactor":0.5
			}
		},
		{
			"doubleSided":true,
			"name":"Material",
			"pbrMetallicRoughness":{
				"baseColorFactor":[
					0.800000011920929,
					0.800000011920929,
					0.800000011920929,
					1
				],
				"roughnessFactor":0.5
			}
		},
		{
			"doubleSided":true,
			"name":"penstocks",
			"pbrMetallicRoughness":{
				"baseColorFactor":[
					0.800000011920929,
					0.800000011920929,
					0.800000011920929,
					1
				],
				"metallicFactor":1,
				"roughnessFactor":0.4000000059604645
			}
		}
	],
	"meshes":[
		{
			"name":"Cube",
			"primitives":[
				{
					"attributes":{
						"POSITION":0,
						"NORMAL":1,
						"TEXCOORD_0":2
					},
					"indices":3,
					"material":0
				}
			]
		},
		{
			"name":"Cube.001",
			"primitives":[
				{
					"attributes":{
						"POSITION":4,
						"NORMAL":5,
						"TEXCOORD_0":6
					},
					"indices":3,
					"material":1
				}
			]
		},
		{
			"name":"penstocks",
			"primitives":[
				{
					"attributes":{
						"POSITION":7,
						"NORMAL":8,
						"TEXCOORD_0":9
					},
					"indices":10,
					"material":2
				}
			]
		},
		{
			"name":"penstocks.001",
			"primitives":[
				{
					"attributes":{
						"POSITION":11,
						"NORMAL":12,
						"TEXCOORD_0":13
					},
					"indices":10,
					"material":2
				}
			]
		}
	],
	"accessors":[
		{
			"bufferView":0,
			"componentType":5126,
			"count":24,
			"max":[
				0.30480000376701355,
				0.30480000376701355,
				0.30480000376701355
			],
			"min":[
				-0.30480000376701355,
				-0.30480000376701355,
				-0.30480000376701355
			],
			"type":"VEC3"
		},
		{
			"bufferView":1,
			"componentType":5126,
			"count":24,
			"type":"VEC3"
		},
		{
			"bufferView":2,
			"componentType":5126,
			"count":24,
			"type":"VEC2"
		},
		{
			"bufferView":3,
			"componentType":5123,
			"count":36,
			"type":"SCALAR"
		},
		{
			"bufferView":4,
			"componentType":5126,
			"count":24,
			"max":[
				0.30480000376701355,
				0.30480000376701355,
				0.30480000376701355
			],
			"min":[
				-0.30480000376701355,
				-0.30480000376701355,
				-0.30480000376701355
			],
			"type":"VEC3"
		},
		{
			"bufferView":5,
			"componentType":5126,
			"count":24,
			"type":"VEC3"
		},
		{
			"bufferView":6,
			"componentType":5126,
			"count":24,
			"type":"VEC2"
		},
		{
			"bufferView":7,
			"componentType":5126,
			"count":260,
			"max":[
				14.501875877380371,
				12.378308296203613,
				6.204204082489014
			],
			"min":[
				9.640905380249023,
				7.295828819274902,
				1.121725082397461
			],
			"type":"VEC3"
		},
		{
			"bufferView":8,
			"componentType":5126,
			"count":260,
			"type":"VEC3"
		},
		{
			"bufferView":9,
			"componentType":5126,
			"count":260,
			"type":"VEC2"
		},
		{
			"bufferView":10,
			"componentType":5123,
			"count":600,
			"type":"SCALAR"
		},
		{
			"bufferView":11,
			"componentType":5126,
			"count":260,
			"max":[
				14.501875877380371,
				12.378308296203613,
				6.204204082489014
			],
			"min":[
				9.640905380249023,
				7.295828819274902,
				1.121725082397461
			],
			"type":"VEC3"
		},
		{
			"bufferView":12,
			"componentType":5126,
			"count":260,
			"type":"VEC3"
		},
		{
			"bufferView":13,
			"componentType":5126,
			"count":260,
			"type":"VEC2"
		}
	],
	"bufferViews":[
		{
			"buffer":0,
			"byteLength":288,
			"byteOffset":0,
			"target":34962
		},
		{
			"buffer":0,
			"byteLength":288,
			"byteOffset":288,
			"target":34962
		},
		{
			"buffer":0,
			"byteLength":192,
			"byteOffset":576,
			"target":34962
		},
		{
			"buffer":0,
			"byteLength":72,
			"byteOffset":768,
			"target":34963
		},
		{
			"buffer":0,
			"byteLength":288,
			"byteOffset":840,
			"target":34962
		},
		{
			"buffer":0,
			"byteLength":288,
			"byteOffset":1128,
			"target":34962
		},
		{
			"buffer":0,
			"byteLength":192,
			"byteOffset":1416,
			"target":34962
		},
		{
			"buffer":0,
			"byteLength":3120,
			"byteOffset":1608,
			"target":34962
		},
		{
			"buffer":0,
			"byteLength":3120,
			"byteOffset":4728,
			"target":34962
		},
		{
			"buffer":0,
			"byteLength":2080,
			"byteOffset":7848,
			"target":34962
		},
		{
			"buffer":0,
			"byteLength":1200,
			"byteOffset":9928,
			"target":34963
		},
		{
			"buffer":0,
			"byteLength":3120,
			"byteOffset":11128,
			"target":34962
		},
		{
			"buffer":0,
			"byteLength":3120,
			"byteOffset":14248,
			"target":34962
		},
		{
			"buffer":0,
			"byteLength":2080,
			"byteOffset":17368,
			"target":34962
		}
	],
	"buffers":[
		{
			"byteLength":19448,
			"uri":"USACE-3D-22-002-dam.bin"
		}
	]
}
