{
	"asset":{
		"generator":"Khronos glTF Blender I/O v4.0.44",
		"version":"2.0"
	},
	"scene":0,
	"scenes":[
		{
			"name":"Scene",
			"nodes":[
				0
			]
		}
	],
	"nodes":[
		{
			"mesh":0,
			"name":"Mesh_0",
			"translation":[
				0,
				40.0381965637207,
				-21.634347915649414
			]
		}
	],
	"materials":[
		{
			"doubleSided":true,
			"name":"Material.003",
			"pbrMetallicRoughness":{
				"baseColorFactor":[
					0.8009548187255859,
					0.7258660793304443,
					0.49767470359802246,
					1
				],
				"metallicFactor":1,
				"roughnessFactor":0.4000000059604645
			}
		}
	],
	"meshes":[
		{
			"name":"Mesh_0",
			"primitives":[
				{
					"attributes":{
						"POSITION":0,
						"NORMAL":1
					},
					"indices":2,
					"material":0
				}
			]
		}
	],
	"accessors":[
		{
			"bufferView":0,
			"componentType":5126,
			"count":484994,
			"max":[
				23.061668395996094,
				14.411651611328125,
				34.15175247192383
			],
			"min":[
				-31.56869125366211,
				-38.088348388671875,
				-20.478607177734375
			],
			"type":"VEC3"
		},
		{
			"bufferView":1,
			"componentType":5126,
			"count":484994,
			"type":"VEC3"
		},
		{
			"bufferView":2,
			"componentType":5125,
			"count":490506,
			"type":"SCALAR"
		}
	],
	"bufferViews":[
		{
			"buffer":0,
			"byteLength":5819928,
			"byteOffset":0,
			"target":34962
		},
		{
			"buffer":0,
			"byteLength":5819928,
			"byteOffset":5819928,
			"target":34962
		},
		{
			"buffer":0,
			"byteLength":1962024,
			"byteOffset":11639856,
			"target":34963
		}
	],
	"buffers":[
		{
			"byteLength":13601880,
			"uri":"francis.bin"
		}
	]
}
